<svg width="54" height="54" viewBox="0 0 54 54" fill="none" xmlns="http://www.w3.org/2000/svg">
<path d="M47.4167 53.25H6.58333C5.03624 53.25 3.55251 52.6354 2.45854 51.5415C1.36458 50.4475 0.75 48.9638 0.75 47.4167V6.58333C0.75 5.03624 1.36458 3.55251 2.45854 2.45854C3.55251 1.36458 5.03624 0.75 6.58333 0.75H47.4167C48.9638 0.75 50.4475 1.36458 51.5415 2.45854C52.6354 3.55251 53.25 5.03624 53.25 6.58333V47.4167C53.25 48.9638 52.6354 50.4475 51.5415 51.5415C50.4475 52.6354 48.9638 53.25 47.4167 53.25ZM27 12.4167L12.4167 27H21.1667V38.6667H32.8333V27H41.5833L27 12.4167Z" fill="#2752E7"/>
</svg>
